<svg version="1" xmlns="http://www.w3.org/2000/svg" width="2474.667" height="2474.667" viewBox="0 0 1856.000000 1856.000000"><path d="M889 68.6c-3 .2-12.7.8-21.5 1.4-37.6 2.5-87.7 9.8-124.8 18-105.2 23.4-202.8 65.4-293.5 126.2-85.7 57.5-167.6 138.4-225.4 222.8-66.9 97.8-111.1 201.2-134.3 314-7.5 36.3-12.2 70.1-15.7 113-1.7 20.5-1.7 99.3 0 119.5 4.3 50.7 9.8 88.6 18.8 128.5 42.8 190.4 149.6 360.3 303.4 482.6 127.7 101.6 285.5 165.9 444 180.8 37.7 3.6 47.9 4.1 88 4.1 77.5 0 137-7.2 210-25.4 107.3-26.8 211.2-76.3 301.9-143.9 85.1-63.5 162.5-148.3 218-238.9 65.5-107.1 106.8-226.6 120.5-349.3 4.3-38.6 5.1-53.3 5.1-98.5 0-44.9-.7-58-5.1-97.3-16.5-149.2-74.2-294-165.6-415.7-25.6-34-48.8-60.6-81.2-93.1-100.8-100.7-226.5-175.3-362.6-214.9-58.5-17.1-108.7-26.3-173.1-32-16.3-1.5-93.2-2.8-106.9-1.9zm30 35.9V123h19V85.7l10.7.6c5.8.4 13.4.7 16.8.7h6.1l-.4 9.5-.4 9.5h6.8c3.8 0 7.9.3 9 .6 2.1.5 2.2.1 2.9-8.5l.7-9.1h3.2c5.7 0 28.4 2.3 29.6 3 .8.5.9 2.8 0 9-.6 4.5-.9 8.4-.7 8.6.7.7 16.9 2.5 17.4 2 .3-.3 1-4.4 1.6-9.1l1-8.6 4.6.6c8.5 1.2 28.6 4.6 28.9 5 .2.2-.4 4-1.3 8.5s-1.4 8.5-1 8.8c.3.4 4.4 1.4 9 2.3l8.4 1.5.5-2.5c.3-1.4 1.1-5.4 1.7-8.9.6-3.4 1.7-6.2 2.3-6.2.6 0 8.1 1.6 16.6 3.5 8.5 1.9 15.6 3.5 15.6 3.5.1 0-.8 4-2.1 9l-2.3 9 4.2 1c2.2.6 6.2 1.7 8.8 2.4l4.8 1.4.9-3.7c.6-2 1.5-5.9 2.2-8.6.7-2.8 1.3-5.2 1.5-5.4.4-.4 29.6 7.8 31.3 8.8 1.1.7.8 2.4-1.3 8.7-1.4 4.4-2.6 8.2-2.6 8.6 0 .8 16.9 6.3 17.4 5.7.2-.2 1.5-4.1 3-8.6l2.7-8.2 14.2 5c7.8 2.8 15 5.3 16 5.6.9.3 1.7.7 1.7.9 0 .2-1.4 3.8-3 8-1.7 4.2-2.9 8.1-2.7 8.7.2.8 14 6.7 15.8 6.7.3 0 1.8-3.3 3.4-7.3 1.5-3.9 3.2-7.6 3.6-8.1.8-.9 25.7 9.1 29.4 11.8 1.6 1.1 1.5 1.8-1.9 9.1-2 4.3-3.5 7.9-3.4 8 .8.7 12.6 6.3 14.3 6.9 1.8.5 2.6-.5 5.9-7.3 4.6-9.3 2.8-9.4 21.8.7l12.6 6.7-4.4 7.9c-2.4 4.3-4.3 8-4.2 8.1 1 .9 15.1 8.5 15.6 8.5.4 0 2.5-3.4 4.7-7.5s4.5-7.5 5-7.5c.8 0 26.6 15.1 28.4 16.6.2.1-1.8 3.7-4.4 7.9-2.6 4.2-4.6 7.7-4.4 7.9 1.4 1.3 15.1 9.7 15.3 9.4.1-.1 2.2-3.5 4.6-7.3 2.3-3.9 4.4-7.2 4.6-7.4.4-.4 14.9 9.1 24.2 15.8l4.2 3.1-10.5 14.6c-5.8 8-10.3 14.9-10 15.4.3.4 3.5 3 7.2 5.6l6.7 4.8 1.8-2.5c1-1.3 5.8-7.9 10.8-14.7l9-12.3 2.8 1.9c1.5 1.1 7.5 5.8 13.4 10.4l10.7 8.5-5.4 6.6c-3 3.7-5.5 7-5.5 7.4.1.5 3.1 3.2 6.8 6.2l6.7 5.3 5.2-5.8c2.9-3.3 5.3-6.2 5.3-6.7 0-.4.4-.7 1-.7 1.5 0 25 20.9 25 22.3 0 .6-2.6 3.7-5.7 6.9l-5.7 5.8 6.4 6.5 6.4 6.5 6.6-6.5 6.5-6.5 12 12 12 12-6.3 5.6c-3.4 3.1-6.2 6.1-6.2 6.8 0 .6 2.7 3.8 5.9 7l6 5.9 6.6-5.8 6.6-5.8 2.4 2.4c4.7 4.9 19.5 22.2 19.5 22.9 0 .3-2.9 3-6.5 5.9-7.4 6-7.4 5.5.3 14.1l4.9 5.4 6.1-4.9c3.4-2.8 6.7-5 7.4-5 1.1 0 20.8 24.2 20.8 25.5 0 .3-2.4 2.2-5.3 4.3-10.1 7.3-9.6 5.7-3.7 13.7 2.8 3.8 5.5 7 5.9 7 .4 0 3.5-2.1 7-4.6 3.4-2.5 6.8-4.3 7.5-4.1 1.1.5 17.1 23.2 18.1 25.9.4.9-2 3-6.9 6.1l-7.5 4.8 4.7 7.4c2.6 4.1 5.1 7.5 5.5 7.5.5 0 4-2.1 7.9-4.6 5.5-3.5 7.3-4.2 8-3.2 3.5 5.5 15.8 26.8 15.8 27.5 0 .5-3.4 2.8-7.5 5.2l-7.5 4.3 4.1 7.6c2.3 4.2 4.3 7.9 4.5 8.1.1.1 3.6-1.5 7.7-3.8s7.7-4.1 8-4.1c.7 0 8.1 13.6 12.2 22.6l3.5 7.6-7.8 3.5c-4.2 1.9-7.8 3.7-8 3.8-.6.6 7.1 16.5 8 16.5.5 0 4-1.6 7.9-3.6 4.3-2.1 7.5-3.2 8.1-2.6.5.5 3.7 7.4 7.2 15.5l6.4 14.5-8.1 3.3c-4.5 1.8-8.4 3.4-8.6 3.5-.3.2 5.5 15.8 6.4 17.1.1.2 3.9-1.3 8.5-3.2 4.5-2 8.4-3.4 8.5-3.3.6.6 11.6 32.1 11.3 32.3-.2.1-7 2.3-15.2 4.9-8.2 2.6-15.9 5.1-17.1 5.6l-2.3.9 2.5 8.3c1.4 4.6 2.7 8.5 2.9 8.7.1.1 8-2.3 17.4-5.4 9.4-3.1 17.4-5.5 17.7-5.2.5.6 7.6 24.3 8.7 29.3l.7 3.1-8.6 2.2c-4.7 1.3-8.5 2.8-8.5 3.4 0 1.2 4 16 4.5 16.5.2.2 4-.7 8.5-1.9 6.5-1.8 8.3-2 9-1 1 1.7 7.3 31.1 6.8 31.7-.3.2-4.2 1.1-8.6 2-7.2 1.5-8.2 1.9-8.2 3.8.1 2.9 2.6 14.6 3.4 15.3.3.3 4.2-.1 8.8-1.1 4.5-.9 8.3-1.5 8.4-1.3.3.3 3.8 21.4 4.9 28.8l.6 4.7-4.6.6c-14.6 2-13.7 1.7-13.2 4 .3 1.1.9 5.1 1.2 8.8.8 7.7.3 7.4 11.5 5.8 3.6-.5 6.8-.6 7.1-.2.4.4 1.3 8 2.1 16.8l1.4 16.2-4.5.6c-2.4.3-6.3.6-8.7.6h-4.4v7.9c0 4.4.2 8.5.5 9.3.4 1 2.7 1.2 9.5 1l9-.4v6.4c0 3.6.3 11.3.7 17.1l.6 10.7H1748v18H1766.3l-.6 10.7c-.4 5.8-.7 13.5-.7 17.1v6.5l-8.9-.6c-10.5-.8-10.1-1.2-10.1 10.4v7.9h6.9c3.8 0 7.6.3 8.5.6 1.9.7 2 5.8.3 22.4-1.1 10.5-1.4 11.5-3.2 11.3-1.1-.1-5.2-.5-9.1-.9l-7.1-.7-.7 5.9c-.4 3.3-.9 7.3-1.2 8.9l-.5 3.1 9 1.3c5 .7 9.1 1.6 9.1 1.9 0 1.4-5 32.6-5.3 32.8-.1.1-4.1-.6-9-1.6l-8.7-1.7-.5 2.1c-3.6 17.4-3.9 16.2 4.9 17.6 4 .7 7.9 1.6 8.6 2 1 .6.5 4.2-2 15.8-1.8 8.3-3.6 15.6-4 16.2-.5.8-3.1.5-9-1-4.5-1.2-8.4-2-8.5-1.8-.4.4-4.5 15.7-4.5 16.7 0 .4 3.8 1.8 8.5 3.1s8.5 2.6 8.5 2.9c0 1.1-8.8 31.2-9.2 31.6-.2.3-7.8-2-16.8-5-9.1-3-16.9-5.5-17.6-5.5-1.2 0-6.5 16.2-5.5 17.1.3.3 8 3 17.1 5.9 9.1 2.9 16.6 5.3 16.8 5.5.3.2-8.1 24.5-10.1 29.4l-1.2 2.9-6.5-2.7c-11.4-4.9-10.2-5.2-13.9 4.5-1.8 4.7-3.1 8.7-2.9 8.8.1.1 2.6 1.1 5.3 2.1 2.8 1 6.4 2.4 8.2 3.1l3.1 1.4-5.2 12.2c-5.4 12.5-7.8 18-8.2 18.6-.1.2-3.7-1.3-7.9-3.2-4.3-2-8.1-3.6-8.5-3.6-.8 0-8.5 15.9-7.9 16.3.2.2 3.9 1.9 8.1 3.7 4.3 1.9 7.7 3.9 7.8 4.4 0 1.1-15 29.6-15.6 29.6-.3 0-3.9-1.9-8-4.1-4.1-2.3-7.7-4-7.9-3.8-.2.2-2.2 3.9-4.5 8.1l-4.1 7.6 8 4.4 8 4.4-8.5 14.4c-4.7 8-8.6 14.6-8.7 14.7-.2.1-3.7-2-7.9-4.7l-7.7-4.9-1.4 2.2c-.8 1.2-3 4.7-5 7.8l-3.6 5.6 7.5 4.8c5.3 3.3 7.4 5.2 6.9 6.2-1.1 3-17.6 26.3-18.6 26.3-.5 0-4-2.3-7.6-5l-6.6-5-5.3 7.2c-3 4-5.4 7.5-5.4 7.8 0 .3 2.2 2 4.8 3.8 2.6 1.7 5.8 4.1 7.2 5.1l2.4 1.9-8.9 11.7c-5 6.4-9.6 12.4-10.3 13.3-1.4 1.9-1.3 1.9-9.9-4.9l-5.8-4.7-5.8 6.9c-3.1 3.7-5.7 7-5.7 7.2 0 .2 2.9 2.7 6.5 5.6 3.6 2.9 6.5 5.7 6.5 6.2 0 1.1-20.9 24.9-21.9 24.9-.4 0-2.7-2.1-5.1-4.6-7.4-7.5-7.3-7.5-14.6-.3l-6.4 6.4 6.7 6.2 6.8 6.1-12 12.2-12 12.1-6.4-6.6-6.4-6.6-6.2 5.8c-3.5 3.2-6.3 6.2-6.4 6.8 0 .5 2.6 3.7 6 7.1l6.1 6.1-12.2 10.9c-6.7 6-12.5 11-13 11.2-.5.2-3.2-2.5-6.1-6-2.8-3.5-5.5-6.4-6-6.6-.9-.4-13.9 9.8-13.9 10.9 0 .3 2.5 3.7 5.6 7.4 3 3.7 5.1 7.1 4.7 7.5-1.1 1-17.9 14-22.4 17.4l-3.7 2.7-10.7-14.6c-6.5-8.8-11.3-14.4-12-14.1-3.5 1.3-13.4 9.3-13 10.4.3.7 5 7.6 10.6 15.3 5.6 7.7 10 14.1 9.8 14.3-1.7 1.4-27.4 18.6-27.8 18.6-.3 0-2.6-3.3-5-7.3-2.4-3.9-4.5-7.4-4.7-7.5-.2-.3-13.9 8.1-15.3 9.4-.2.1 1.8 3.7 4.4 7.9 2.6 4.2 4.6 7.8 4.3 8-1.2 1.2-27.4 16.5-28.3 16.5-.5 0-2.8-3.4-5-7.5s-4.2-7.5-4.5-7.5c-.3 0-4 1.8-8.3 4.1l-7.8 4.1 4.4 8.1 4.4 8.2-14.7 7.8c-8.2 4.2-15 7.7-15.3 7.7-.2 0-2.1-3.6-4.1-8-2.1-4.4-4.2-8-4.6-8-1.1 0-16 7.1-16 7.6 0 .3 1.8 4 4 8.4l4 8-3.2 1.4c-1.8.7-8.6 3.7-15.1 6.5s-12.2 5.1-12.7 5.1c-.4 0-2.2-3.6-4-8-1.8-4.4-3.6-8-4.1-8-2.1 0-15.1 5.4-15.5 6.5-.3.7.9 4.7 2.6 8.9 1.6 4.2 3 7.8 3 8 0 .2-.8.6-1.7.9-1 .3-8.2 2.8-16 5.6l-14.2 5-2.7-8.2c-1.5-4.5-2.8-8.4-3-8.6-.5-.5-15.6 3.9-16.7 4.9-.4.3.4 4.4 1.8 8.9 1.5 4.6 2.5 8.5 2.2 8.7-.6.6-29.9 9.4-31.3 9.4-.6 0-1.6-2.4-2.3-5.3-.6-3-1.6-7-2.2-8.9l-.9-3.6-7.8 1.9c-4.2 1.1-8.2 2.2-8.9 2.4-.8.3-.5 2.9 1.2 9.3l2.2 9-4.6 1.2c-7.8 2-26.3 6-27.6 6-.8 0-1.9-3.4-2.8-8.6-.9-4.8-1.7-8.8-1.9-8.9-.3-.3-17.1 2.6-17.6 3-.2.2.4 4.2 1.3 9s1.4 8.9 1.1 9.2c-.4.4-29.8 5.3-32.2 5.3-.5 0-1.5-3.8-2.1-8.5-.5-4.7-1.3-8.8-1.7-9.2-.6-.6-16.5 1.3-17.3 2.1-.2.2.1 4 .7 8.5s.9 8.5.6 9c-.3.4-7 1.4-14.8 2-7.9.7-15.3 1.4-16.4 1.6-2.1.5-2.2 0-2.9-9.1l-.7-9.6-4.5.6c-2.5.3-6.6.6-9.1.6h-4.4l.4 9.5.4 9.5h-10.1c-5.5 0-13 .3-16.7.7l-6.8.6V1725h-19v37.3l-8.2-.6c-4.6-.4-12.3-.7-17.2-.7h-8.8l.7-9.3.7-9.4-8.8-.6c-6.4-.5-9-.3-9.6.6-.4.7-.8 4.7-.8 8.9v7.8l-5.7-.1c-3.2 0-10.7-.6-16.8-1.2l-11-1.2.2-6.5c.1-3.6.4-7.7.7-9.1.6-3 .1-3.2-12-4.5l-6.1-.6-1 8.6c-.6 4.8-1.3 8.9-1.6 9.2-.4.5-13.8-1.3-27.2-3.7l-6.2-1 1.7-9.1c1.2-6.3 1.4-9.1.6-9.3-3-1-16.1-3.3-16.7-2.9-.3.2-1.2 3.8-1.9 8.1s-1.6 8.2-2.1 8.7c-.7.8-29.4-4.9-31.9-6.4-.9-.5-.7-2.6 1-8.9 1.3-4.7 1.9-8.6 1.4-9-1-.9-13.4-4.1-15.7-4.1-.9 0-2 2.7-3.2 7.5-1.1 4.2-2.2 8-2.6 8.7-.5.7-5.3-.2-15.5-3.2-8.2-2.3-15.4-4.5-16.1-4.9-.8-.4-.4-3 1.7-9.3l2.8-8.7-7.7-2.6c-4.2-1.4-8.1-2.5-8.8-2.5-.6 0-2.4 3.7-3.9 8.3-1.4 4.5-2.8 8.3-2.9 8.5-.1.1-6.7-2-14.6-4.9-7.9-2.8-15.1-5.3-16-5.6-1.4-.4-1.2-1.6 1.7-9.1 1.9-4.7 3.1-8.9 2.7-9.2-.5-.4-4.3-2.1-8.5-3.7l-7.7-3.1-3 7.6c-1.7 4.3-3.1 8.3-3.1 9.1 0 .7-.6 1.1-1.2.8-2.9-1.1-30.3-13-30.6-13.3-.2-.1 1.4-4 3.6-8.7l3.9-8.4-7.4-3.6c-4-2.1-7.8-3.7-8.3-3.7-.5 0-2.8 3.6-5 8s-4.3 8-4.7 8c-.8 0-27.6-13.9-28.6-14.9-.4-.4 1.1-4.3 3.4-8.5 2.3-4.4 3.8-8.1 3.3-8.6-2-1.9-14.5-8.2-15.1-7.6-.4.3-2.5 4-4.8 8.1l-4.1 7.5-14.4-8.6c-8-4.7-14.6-8.6-14.7-8.8-.1-.1 2-3.7 4.8-8 2.7-4.3 4.9-7.9 4.7-8.1-.2-.1-3.6-2.3-7.7-4.9-8.5-5.5-7.3-5.9-13.9 5l-3.6 6.1-10.6-7c-5.8-3.9-12.2-8.3-14.2-9.7l-3.7-2.7 7.2-9.9c4-5.4 8.9-12.2 11-15.1l3.8-5.2-6.8-5c-3.7-2.8-7.2-5-7.8-5-.9-.1-9.6 11.4-18.6 24.4l-3.5 5.2-13.6-10.5-13.7-10.5 6.1-7.4 6-7.4-2.5-1.9c-1.3-1.1-4.3-3.5-6.7-5.5-2.3-1.9-4.6-3.5-5-3.5-.4 0-3.2 2.9-6.1 6.5-2.9 3.6-5.6 6.5-6 6.5-.9 0-21.6-17.8-23.8-20.3-1.1-1.5-.6-2.5 4.8-8.4l6.1-6.8-6.7-6.4-6.7-6.5-6.3 6.9-6.3 6.9-6.4-6.2c-3.6-3.5-9-8.8-12-12l-5.5-5.7 6.5-6.6 6.6-6.6-6.3-6.7-6.2-6.7-6.6 6.5-6.7 6.6-5-5.2c-2.8-2.9-8-8.7-11.6-12.8l-6.6-7.5 7.3-6.1 7.4-6.1-5.5-6.7c-3.1-3.6-6-6.6-6.6-6.6-.5 0-4 2.5-7.6 5.5l-6.6 5.5-2.3-2.8c-8.4-10.1-20.1-26.1-18.9-25.6 1.6.6 14.6-8.2 14.6-9.9 0-.5-2.3-4-5.1-7.8l-5-6.8-7.6 5.6c-4.1 3-7.8 5.1-8.2 4.7-7.7-11-18.9-28.4-18.1-28.4 1.1 0 15-8.7 15-9.5 0-.2-2.1-3.8-4.8-7.9l-4.7-7.5-7.9 5c-4.3 2.8-7.9 4.9-8.1 4.7-3.4-4-17.9-29.8-16.8-29.8.6 0 4.4-1.9 8.6-4.1l7.6-4.2-2.5-4.3-2.5-4.2 10.3-5.5c5.7-3 85.9-44.9 178.3-93s237.3-123.5 321.9-167.6c84.6-44.1 154.1-80 154.3-79.7.4.4-38.8 88.2-61.7 138.1-4.3 9.3-9.4 20.6-11.3 25-4 8.8-27.5 61.1-68.7 152.5-42 93.3-63.1 140.2-64.6 143.6l-1.3 3.2 25.1 11.3c22 9.9 25.3 11.1 26.1 9.7.6-.9 49.3-108.6 108.2-239.4l107.1-237.7 6.1-1.3c7.6-1.5 14.1-4.4 20.3-8.8l4.7-3.4 9.9 8.3c5.4 4.5 137.9 114.1 294.3 243.5l284.5 235.3 3.8-4.4c2.2-2.4 4.8-5.6 5.9-7.1l1.9-2.6-10.7-9c-6-4.9-130.9-108.3-277.8-229.7-146.8-121.5-274.3-227-283.3-234.4-11.4-9.4-16.2-14-15.8-15.1.3-.8 1.7-4.9 3.2-9 3.8-10.4 3.8-24.1.1-34.8-7.1-20.4-23-33.6-44.9-37.3-20.1-3.4-42.1 6.3-53.7 23.7-6.5 9.7-9.3 18.3-9.6 29.8l-.3 8.8-197.4 102.7C566.3 1090.4 451.2 1150.3 419 1167c-32.2 16.6-70.2 36.5-84.5 44-14.3 7.5-51.9 27.1-83.5 43.5s-57.7 30-58 30.3c-.3.2 2.4 6 5.9 12.8 4 7.7 6.1 12.8 5.5 13.4-.5.5-4.1 2.6-8 4.8l-7.1 3.9-8.1-15.7c-4.7-8.9-7.6-15.7-6.9-15.7 2.3 0 15.7-6.6 15.7-7.7 0-2-6.5-15.5-7.5-15.6-.6 0-4.3 1.6-8.4 3.5-8.4 4-8.7 4.1-9.4 1.7-.3-.9-3.3-7.9-6.6-15.5-3.4-7.5-6.1-13.9-6.1-14.1 0-.1.6-.3 1.3-.3 1.1-.1 14.3-4.9 15.8-5.9.7-.4-4.6-15-6.1-16.6-.3-.5-4.3.8-8.9 2.7-4.6 2-8.5 3.4-8.7 3.2-.4-.4-12.4-33.9-12.4-34.6 0-.3.4.1.9.9.8 1.2 3.6.5 17.8-4 9.2-2.9 17-5.5 17.2-5.7.5-.4-4-15.5-5-16.6-.6-.8-30.5 8.2-34.2 10.3-.9.6-1.7.8-1.7.6 0-.3-2.3-8.2-5-17.7-5.2-17.9-5.5-19.3-4.1-17.1 1.3 2.1 18.3-2.4 17.7-4.7-.3-.9-1.3-4.8-2.2-8.6-.9-3.9-1.8-7.1-1.9-7.3-.6-.8-17.5 4.2-17.6 5.2-.1 1.9-1.8-4.3-5-19.3-2.5-11.3-2.9-14.5-1.9-15.1.7-.4 4.8-1.4 9.1-2 4.4-.7 7.9-1.5 7.9-1.7 0-.3-.7-4.4-1.6-9.2l-1.6-8.7-7.6 1.3c-4.3.7-8.4 1.8-9.3 2.3-1.5.8-2-1.1-4.4-16.1-1.5-9.4-2.5-17.2-2.3-17.4.3-.3 15.1-2.5 17-2.5.7 0 .8-2.6.4-7.8-1.1-11.8-.2-11-10.4-9.6-4.8.6-9 .9-9.3.5-.4-.3-1.3-7.8-2.1-16.6-1.6-18.6-2.4-17.2 10.1-17.4l7.4-.1-.8-9.3c-.4-5-.8-9.3-.9-9.5-.2-.1-4.4.1-9.4.6l-9.2.8v-6.7c0-3.6-.3-11.4-.7-17.2l-.6-10.7H109v-18H89.7l.6-12.8c.4-7 .7-14.7.7-17.2v-4.5l9.2.6c5.1.3 9.4.6 9.5.5 0-.1.4-4.3.8-9.4l.8-9.2h-4.4c-2.4 0-6.7-.3-9.4-.6l-5.1-.6 1.4-16.2c.8-8.8 1.7-16.4 2.1-16.9.4-.4 4.4-.2 9 .5 6.7.9 8.4.9 9.1-.2.9-1.4 2.4-15.9 1.7-16.6-.2-.2-4.3-.9-9.1-1.6-4.7-.6-8.6-1.3-8.6-1.7 0-1.6 5-32.5 5.3-32.8.2-.2 3.9.4 8.3 1.2 4.3.8 8.4 1.5 9 1.5.9 0 4.4-13.8 4.4-17.1 0-.4-4-1.4-9-2.4s-9-2.3-9-2.9c0-.6 1.6-8.1 3.5-16.6 1.9-8.5 3.5-15.6 3.5-15.7 0 0 4.1 1 9.1 2.4 5 1.3 9.2 2.3 9.3 2.1.5-.5 4.5-17.2 4.3-17.5-.2-.1-4-1.2-8.6-2.4-7-1.8-8.5-2-9.3-.8-1.2 1.8-1.1 1.6 4.7-18.6l4.7-16 17.6 5.7c9.7 3.2 17.8 5.8 17.9 5.8.5 0 5.6-17 5.2-17.4-.7-.7-32-10.6-33.5-10.6-.8 0-1.4.5-1.4 1.2 0 .6-.2.9-.5.6-.7-.7 10.4-32.6 12-34.6.2-.2 4.2 1.3 8.9 3.2l8.7 3.5.8-2.2c.5-1.2 2-5 3.4-8.5l2.6-6.3-4.2-1.8c-2.3-1-6.3-2.6-8.9-3.5l-4.6-1.8 3.8-9.2c5.4-12.8 10.9-24.3 10.9-23 .1.9 14.1 8.4 15.7 8.4.7 0 7.4-13.9 7.4-15.3 0-1.5-14.7-9-16.1-8.1-.6.3 2.6-6.6 7-15.5l8.1-16 8.4 4.5 8.5 4.5 4-7.3c2.3-4 4.1-7.8 4.1-8.3 0-.6-3.6-2.9-8-5.3l-7.9-4.3 2.8-4.7c4.8-8 14.3-23.7 14.7-24.1.1-.2 3.7 1.8 7.8 4.4 4.1 2.6 7.9 4.4 8.4 4.1.5-.3 2.9-3.8 5.2-7.7 3.5-5.7 4.1-7.2 2.9-7.9-9.5-5.8-13.8-8.6-13.9-9.1 0-.5 12.8-19.7 17.2-25.8l1.7-2.4 7.1 5.2c3.9 2.9 7.5 5.1 8 4.9 1.1-.4 10-12.6 10-13.7 0-.5-3.2-3.2-7-6.1-4.2-3.1-6.7-5.6-6.3-6.3.5-1 13.3-17.6 18.4-23.9 1.5-1.9 1.7-1.8 8.3 3.6 3.8 3.1 7.2 5.6 7.6 5.6.4 0 2.6-2.4 5-5.3 2.4-2.8 4.9-5.9 5.6-6.7 1.1-1.3.3-2.4-5.6-7-3.8-3-6.9-5.9-6.9-6.3-.1-.9 17-20.8 20.6-23.9 1.8-1.7 2.1-1.5 7.8 4.2 3.3 3.3 6.5 6 7.1 6 .6 0 3.7-2.9 6.8-6.4l5.6-6.4-6.5-6.3-6.6-6.4 12.1-12 12.2-12 6.1 6.7 6.2 6.7 7-6.3 6.9-6.3-6.4-6.8-6.5-6.7 4.6-4.2c14.5-13.2 19.7-17.6 20.7-17.6.5 0 3.4 2.9 6.3 6.5s5.5 6.5 5.7 6.5c.3 0 3.6-2.5 7.4-5.6l6.8-5.5-4.7-6c-7.2-9-7-8.7-4.8-10.3 1.1-.8 7-5.3 13-10 6.1-4.7 11.3-8.6 11.6-8.6.4 0 5.3 6.4 10.9 14.2 5.7 7.9 10.5 14.5 10.7 14.7.3.4 14.1-8.8 14.8-9.9.2-.3-4.5-7.3-10.4-15.5l-10.8-14.9 3.6-2.6c2-1.5 8.3-5.8 14.1-9.7l10.5-7 4.9 7.8c2.9 4.7 5.3 7.6 6 7.2 1.2-.7 13.9-8.5 14.4-8.9.2-.1-1.9-3.7-4.7-8-4.5-7-4.8-7.9-3.3-9 3.3-2.3 20.3-12.4 24.1-14.3l3.8-2 4.2 8c2.3 4.3 4.5 7.9 4.8 7.9 1.2 0 15.3-8.2 15.3-8.9 0-.5-1.8-4.1-4-8.2-3.7-6.6-3.9-7.5-2.5-8.5 4.7-3.5 29.5-15.4 29.5-14.2 0 1.5 6.7 15.8 7.3 15.8 1.5 0 15.7-7.2 15.7-8 0-.5-1.6-4.4-3.5-8.6-1.9-4.2-3.4-7.8-3.2-8 .5-.5 28.1-12.2 29.6-12.6.9-.2 2.5 2.3 4.5 7.4 1.7 4.2 3.4 8 3.8 8.3.6.6 16.8-5.3 16.8-6.1 0-.2-1.5-4.2-3.4-8.7l-3.3-8.4 3.1-1.2c7.9-3 28.8-10.2 29.1-9.9.1.2 1.5 4 2.9 8.5 1.5 4.6 3.1 8.3 3.5 8.3.4 0 4.3-1.2 8.8-2.8l8.1-2.7-2.5-8c-1.4-4.4-3-8.3-3.5-8.6-.5-.3 6.6-2.7 15.8-5.3 12-3.5 16.9-4.5 17.4-3.6.4.6 1.5 4.5 2.6 8.7l1.8 7.5 3.6-.6c6.5-1 14-3.7 14-4.9 0-.7-.9-4.6-2-8.6-1.6-5.6-1.8-7.6-.9-8.2 1.9-1.2 30.7-7.1 31.7-6.5.5.3 1.5 4 2.2 8.3.7 4.3 1.4 8.1 1.6 8.4.3.6 17.1-2.4 17.9-3.2.2-.2-.5-4.3-1.4-9.1l-1.8-8.6 6.1-1.1c16.4-2.8 26.8-4.2 27.3-3.7.3.3 1.1 4.4 1.6 9.2l1.1 8.6 5.1-.6c12.3-1.5 13.6-1.9 13.1-3.1-.2-.7-.8-4.8-1.1-9.2l-.7-8 11.4-1.1c6.3-.7 14-1.2 17.1-1.2h5.7v7.7c0 4.3.4 8.3.8 8.8.4.7 4.1.9 9.5.7l8.9-.4-.7-9.4-.7-9.3 11.3-.4c6.3-.1 14-.4 17.2-.5l5.7-.2v18.5zM170.1 567.7c-1.2 2-1.4 1.4-.5-1.2.4-.9.9-1.4 1.1-1.1.3.2 0 1.3-.6 2.3zm2.9 718.8c0 .5-.5.3-1-.5s-1-2-1-2.5c0-.6.5-.3 1 .5s1 1.9 1 2.5zm112.1 174.2c1.3 1.6 1.2 1.7-.3.4-1.7-1.3-2.2-2.1-1.4-2.1.2 0 1 .8 1.7 1.7zm70.9 74.8c1.3 1.4 2.1 2.5 1.8 2.5-.2 0-1.5-1.1-2.8-2.5-1.3-1.4-2.1-2.5-1.8-2.5.2 0 1.5 1.1 2.8 2.5z"/><path d="M897.3 148.1c-4.8 1.5-6.3 2.4-6.3 3.8 0 1.7.4 1.8 3.8 1 6.5-1.5 6.2-2.3 6.2 14.1v15h-5c-4.3 0-5 .3-5 2 0 1.9.7 2 12.5 2s12.5-.1 12.5-2c0-1.7-.7-2-5-2h-5v-18c0-13.8-.3-18-1.2-17.9-.7 0-4.1 1-7.5 2zM929.3 148c-5.2 3.1-7.7 9.1-7.7 18.5-.1 12.9 4.5 19.5 13.8 19.7 9 .1 13.7-5.8 14.4-18.4.5-9.3-1.3-15.4-5.9-19.3-3.8-3.1-10-3.4-14.6-.5zm11.7 4c3.1 3.1 4.2 6.8 4.2 14 0 10.4-3.3 16-9.5 16-6.4 0-10.4-7.9-9.3-18.3.6-5.8 3.4-12 5.9-13.1 2.8-1.1 6.8-.5 8.7 1.4zM962.7 147.8c-7.3 4.5-10.2 20.8-5.4 30.2 2.9 5.7 6.4 8.3 11.5 8.2 9.9-.2 14.7-7 14.6-20.7 0-12.9-4.8-19.5-14.1-19.5-2.1 0-5.1.8-6.6 1.8zm12.1 4.5c2.7 2.9 4.2 7.7 4.2 13.7 0 9.7-3.8 16-9.7 16-3.6 0-6.8-2.5-8.3-6.6-1.5-3.7-1.2-15 .4-18.8 2.7-6.5 9.4-8.6 13.4-4.3zM974.4 215.1c-6.8.9-11.6 3.3-17.8 9-18 16.4-21.8 55.5-7.9 81 8.6 15.9 28.2 22 44.9 13.9 14.3-6.9 22-22.9 23.1-47.5 1.7-37.4-15.3-60-42.3-56.4zm15.6 12.8c9 5.3 14 17.6 14.8 36.2.8 18.7-2.4 31.8-9.9 40.3-4.8 5.4-9.6 7.8-15.9 7.7-14.2 0-23.4-12.1-26.1-34.3-2.5-20.7 4-42.1 15-49.4 7.6-5 14.4-5.2 22.1-.5zM878.3 220.4l-18.3 5.1v4.8c0 4.4.2 4.7 2.3 4.2 5.8-1.4 22.1-4.5 23.3-4.5 1.2 0 1.4 6.5 1.4 40v40h-28v11h65v-11h-26v-47.5c0-26.1-.3-47.4-.7-47.4-.5.1-9 2.4-19 5.3zM460.3 291.2c-4.6 3.3-6.8 9.3-5.3 14.6 2.3 8.7 9.7 11.2 18.9 6.3 2.7-1.5 2.8.1.5 5.9-2.4 6.1-9.2 8.8-14.6 5.9-1.8-.9-2.4-.8-3.5.7-1.2 1.6-1 2 .9 3.1 1.3.7 4.6 1.2 7.4 1.3 9.9 0 15.6-6.9 16.2-19.7.2-3.9-.1-8.7-.7-10.6-2.8-8.5-13.1-12.4-19.8-7.5zm10.8 3.1c2.1 1.6 4.9 7.1 4.9 9.6 0 2.7-5.1 6.1-9.3 6.1-7.5 0-10.1-9.6-4.2-14.8 2.9-2.4 6.1-2.8 8.6-.9zM496.5 289.9c-5.5 2.4-9.5 10.7-9.5 19.5 0 7.4 1.7 12.5 5.5 16.3 3 3 3.9 3.3 9 3.3 5.3 0 6-.3 9-3.4 7.2-7.6 7.2-26.8.1-33.6-2.8-2.5-10.5-3.7-14.1-2.1zm10.3 5.3c3 3.3 4.2 7.2 4.2 13.8 0 6.6-1.2 10.5-4.2 13.7-4.3 4.6-11 2.1-13.7-5-2.7-7.1-.1-20.9 4.6-23.6 3-1.7 6.8-1.3 9.1 1.1zM1353.3 293.1c-4.8 1.5-6.3 2.4-6.3 3.8 0 1.7.4 1.8 3.8 1 6.5-1.5 6.2-2.3 6.2 14.1v15h-5c-4.3 0-5 .3-5 2 0 1.9.7 2 12.5 2s12.5-.1 12.5-2c0-1.7-.7-2-5-2h-5v-18c0-13.8-.3-18-1.2-17.9-.7 0-4.1 1-7.5 2zM1385.3 293c-5.2 3.1-7.7 9.1-7.7 18.5-.1 12.9 4.5 19.5 13.8 19.7 9 .1 13.7-5.8 14.4-18.4.5-9.3-1.3-15.4-5.9-19.3-3.8-3.1-10-3.4-14.6-.5zm11.7 4c3.1 3.1 4.2 6.8 4.2 14 0 10.4-3.3 16-9.5 16-7.5 0-11.8-11.7-8.7-23.1 2.2-7.9 9.4-11.5 14-6.9zM1301 344.4l-18.5 5.2-.3 4.8c-.3 4.4-.2 4.6 2 4.1 4.1-1 23.3-4.5 24.5-4.5 1 0 1.3 8.6 1.3 40v40h-29v11h66v-11h-26v-47.5c0-26.1-.3-47.5-.7-47.4-.5 0-9.1 2.4-19.3 5.3zM528.8 342.6c-6.7 2-15 9.9-18.9 18-2.6 5.2-3.3 8.2-3.7 14.3-.8 14.6 4.3 25 15.2 30.5 5 2.6 6.8 3 14.4 3 7.5.1 9.5-.3 14.7-2.7 3.3-1.5 7.7-4.1 9.8-5.8l3.7-3v3.4c0 5.3-3.7 18.3-6.5 23.2-7.6 12.8-22.9 17.5-36.1 10.9-3.2-1.6-6.2-2.9-6.6-2.9-.4 0-2.1 2.1-3.7 4.7L508 441l6.3 3.2c6 3.2 6.6 3.3 18.2 3.3 14.2 0 18.1-1.4 27.5-10.1 10.1-9.4 15.8-23.8 16.7-42.4 1.3-26.7-8.9-47.4-25.9-52.5-6.4-1.9-15.7-1.8-22 .1zm18.7 10.3c8.5 3.8 14.9 14.3 16.2 26.6.5 5 .5 5.1-4.2 9.4-7.2 6.6-14.2 9.4-22.4 8.9-8.7-.5-13.2-3.6-16.9-11.6-2.1-4.7-2.4-6.4-1.9-12.2.3-3.8 1.5-8.5 2.5-10.7 5.5-10.5 16.8-14.9 26.7-10.4zM1541.2 666c-10.3 1.5-20.2 8.1-24.3 16.2l-1.9 3.8 4.1 3c4.2 3 5.9 3.1 5.9.4 0-.8 1.8-3.4 4.1-5.8 9.6-10.5 26.7-10.1 35.3.7 2.7 3.3 3.1 4.8 3.4 11 .9 17.3-5.8 27.2-38.8 57.7-7.4 6.9-13.7 12.8-13.8 13.3-.2.4.3 1.9 1.2 3.2l1.6 2.5h33.1c25.5 0 33-.3 33.3-1.3.3-.6.7-3.3 1-6l.6-4.7h-24.1c-14.9 0-23.9-.4-23.7-1 .2-.5 4.4-4.6 9.5-9.2 26.1-23.6 35.8-41.7 32.4-60.3-3.2-17-18.9-26.5-38.9-23.5zM187 667.7c-.8.3-2.7 1.7-4.2 3.1-3.7 3.4-3.8 8.9-.4 12.9l2.4 2.7-2.9 2.7c-7.9 7.4-2.5 17.9 9.3 17.9 8.6 0 13.8-4 13.8-10.6 0-3.7-.5-4.7-3.8-7.5l-3.8-3.2 2.8-2.7c1.5-1.5 3-3.9 3.3-5.3.9-3.3-1.3-7.8-4.5-9.4-2.5-1.3-9.2-1.6-12-.6zm10 5.3c2.4 2.4 2.5 3.8.4 6.8-2.5 3.6-5 4.5-8.3 2.8-6.8-3.6-4.7-11.6 3.1-11.6 1.6 0 3.7.9 4.8 2zm1.3 19.8c4 3.5 0 10.2-6 10.2-9.2 0-12.2-8.6-4.6-13.2 2.5-1.5 3-1.5 5.8-.1 1.6.9 3.8 2.2 4.8 3.1zM218.7 668.8c-7.3 4.5-10.2 20.8-5.4 30.2 2.9 5.7 6.4 8.3 11.5 8.2 9.9-.2 14.7-7 14.6-20.7 0-12.9-4.8-19.5-14.1-19.5-2.1 0-5.1.8-6.6 1.8zm12.1 4.5c2.7 2.9 4.2 7.7 4.2 13.7 0 9.7-3.8 16-9.7 16-3.6 0-6.8-2.5-8.3-6.6-1.5-3.7-1.2-15 .4-18.8 2.7-6.5 9.4-8.6 13.4-4.3zM293.3 670.8c-6.8 2.4-11.1 5.5-14.9 10.6-9.2 12.3-6.4 27.3 6.7 35.8l4.8 3.1-4.7 2.9c-10.9 6.9-15.2 13.4-16 24-.4 5.9-.1 7.5 2.2 12.2 3.2 6.6 8 10.8 15.6 13.8 8 3.2 25.1 3.2 33.3-.1 17.5-6.9 25.2-22.6 18.1-36.9-2.8-5.7-7.3-9.7-15.7-14.1l-5.6-2.9 4.9-3.2c9.3-5.9 14.1-13.8 14.1-22.9.1-15.2-9.3-23.1-28.1-23.8-7.4-.3-10.7.1-14.7 1.5zm21.3 9.7c14.5 7.2 11.8 24.1-5.4 32.9-3.1 1.6-3.5 1.6-7.9-.4-10.1-4.5-15.3-10.5-15.3-17.8 0-5.3 2-9.3 6.2-12.6 6.7-5 15-5.8 22.4-2.1zm-3.2 48.8c10.1 4.8 15.1 9.5 16.2 15.2 1 5.7-.4 10.3-4.5 14.4-11.2 11.2-33.2 8.7-40-4.6-3-5.8-.3-15.9 5.6-21.5 2.9-2.7 11.1-7.8 12.7-7.8.5 0 5 1.9 10 4.3zM1625.4 672c-1.2.4-3.1 2.1-4.3 3.6-2 2.6-2.1 2.9-.6 4 1.3 1 2.1.6 4.5-1.7 3.7-3.7 8.1-3.9 11.5-.4 5.2 5.1 2.4 12-9.2 23.2-6 5.7-8.4 8.6-7.7 9.3.7.7 5.9 1 13.5.8 12-.3 12.4-.4 12.7-2.6.3-2.1.1-2.2-8.4-2.2h-8.7l5.7-6c6.4-6.7 9.5-12.7 9.6-18.4 0-3-.7-4.5-3.4-7.2-3-3-4-3.4-8.2-3.3-2.7 0-5.9.4-7 .9zM1659.4 672.9c-10 6.1-10.3 31.5-.3 36.6 4.7 2.5 11.2 1.9 15-1.2 4.5-3.8 6-8.2 6-17.5 0-13-4.8-19.8-13.8-19.8-2.1 0-5.2.9-6.9 1.9zm10.7 3.1c2.7 1.5 4.8 6 5.5 12.2 1.1 9.8-3 18.8-8.7 18.8-7 0-10.3-5-10.3-15.5.1-12.3 6.2-19.3 13.5-15.5zM1545.1 1070.1c-10.6 1.8-21.2 9.6-24.9 18.2-2.5 5.9-1.1 7.8 7.1 9.4 2.3.5 2.7.2 2.7-1.6 0-3.8 3.9-10 8-12.7 7.8-5.2 22-4 27 2.3 2.3 2.9 2.8 11 .9 14.6-3 5.8-11.8 12-23.9 16.7-7 2.7-7.2 3-5.8 6.8l1.2 3.2h10.1c9.1 0 10.7.3 15.6 2.7 4.2 2.2 5.9 3.8 7.7 7.3 8 15.9-5.6 31.6-25.7 29.7-7.2-.6-12.5-3.3-18.3-9.2l-4.6-4.6-3.2 4.2c-3.2 3.9-3.3 4.2-1.8 6.8 2.3 3.7 11.3 9.9 17.3 11.6 6 1.9 19.6 2.1 25.6.5 15.5-4.2 25.2-15.7 25.3-30 .1-8.2-1.7-13.2-6.2-18.2-3.9-4.4-8.5-7-15.1-8.8l-4.4-1.2 4.3-2.1c5.9-3 13.7-11.8 15.1-17 2.2-8.4-1-19.4-7-23.6-6.8-4.9-16.9-6.7-27-5zM274 1081v6h26c14.3 0 26 .2 26 .4s-9.9 21-22 46.2c-12.1 25.2-22 45.9-22 46.1 0 .2 3 .3 6.8.3h6.7l22.3-48.5c20.7-45 22.3-48.8 21.7-52.5l-.7-4H274v6zM178.6 1136.6c-1.2 3.1-.5 3.3 9.3 3.6l10 .3-8 16.4c-4.3 9-7.9 16.8-7.9 17.3s1.1.8 2.5.6c2.3-.3 3.6-2.4 11-18.6 4.6-10 8.2-18.9 7.9-19.7-.9-2.3-23.9-2.2-24.8.1zM217.7 1136.8c-7.3 4.5-10.2 20.8-5.4 30.2 2.9 5.7 6.4 8.3 11.5 8.2 9.9-.2 14.7-7 14.6-20.7 0-12.9-4.8-19.5-14.1-19.5-2.1 0-5.1.8-6.6 1.8zm12.1 4.5c2.7 2.9 4.2 7.7 4.2 13.7 0 9.7-3.8 16-9.7 16-3.6 0-6.8-2.5-8.3-6.6-1.5-3.7-1.2-15 .4-18.8 2.7-6.5 9.4-8.6 13.4-4.3zM1622.5 1142.1c-1.9 1.7-3.5 3.9-3.5 4.9 0 2.1 3.3 3.7 3.9 1.9.9-2.8 5.1-5.9 7.9-5.9 3.1 0 6.2 2.6 6.2 5.2 0 2.3-4.7 6.5-8.6 7.8-4.1 1.4-4.3 4.4-.4 4.6 1.4.1 3.5.2 4.8.3 3 .2 6.2 3.6 6.2 6.6 0 6.8-9.9 10-15.8 5-2.2-1.8-3.2-2.1-4-1.3-5.3 5.3 10.6 10.5 18.8 6.3 6.1-3.1 7.9-12.1 3.5-16.9-1.3-1.4-3.1-2.6-4-2.6-2.1 0-1.9-1.7.4-2.9 2.5-1.4 4.5-6.5 3.7-9.6-1.1-4.4-4.4-6.5-10.3-6.5-4.4 0-5.8.5-8.8 3.1zM1658.3 1141c-5.2 3.1-7.7 9.1-7.7 18.5-.1 12.9 4.5 19.5 13.8 19.7 9 .1 13.7-5.8 14.4-18.4.5-9.3-1.3-15.4-5.9-19.3-3.8-3.1-10-3.4-14.6-.5zm11.7 4c3.1 3.1 4.2 6.8 4.2 14 0 10.4-3.3 16-9.5 16-7.5 0-11.8-11.7-8.7-23.1 2.2-7.9 9.4-11.5 14-6.9zM1327.9 1401.7c-2 2.2-51.7 63.4-55.1 67.9-.4.6-.1 3.2.8 5.7l1.6 4.7h50.8v25h12v-25h17v-3.9c0-2.2.3-4.6.6-5.5.5-1.4-.6-1.6-8.5-1.6h-9.1l-.2-34.8-.3-34.7-3.5-.3c-2.8-.2-4.1.3-6.1 2.5zm-1.9 43.3v24h-19c-10.4 0-19-.3-19-.6 0-.7 37-47.4 37.6-47.4.2 0 .4 10.8.4 24zM539.9 1403.3c-18.1 7.6-28.5 26.1-29.6 52.9-1.3 29.1 10.2 48.3 30.9 51.8 12.4 2.1 22.1-1.2 30.7-10.5 11.5-12.5 12.8-33.3 2.6-45.3-10.6-12.6-33.8-12.9-48.4-.7-3.7 3.2-3.7 3-1.7-8.7 2.5-13.9 8.2-23.7 16.5-28.1 8.9-4.9 19.7-4.5 27.7 1 2 1.3 3.8 2.3 3.9 2.1.8-.9 4.5-8.9 4.5-9.7 0-.5-2.6-2.2-5.7-3.7-4.9-2.4-7.4-2.8-15.8-3.1-8.7-.3-10.7-.1-15.6 2zm16.8 51.8c13.6 5.1 15.3 27.8 3 38.6-7.4 6.5-16.9 6.7-24.7.4-4.5-3.6-9.7-13.9-10.9-21.6-.8-5.5-.7-6.2 1.2-8.4 2.8-3 8.9-6.9 13.6-8.6 4.4-1.7 14-1.9 17.8-.4zM459.9 1517.4c-10 6.8-11.1 29.1-1.9 35.8 3.7 2.7 11 2.6 14.8-.1 9.6-6.8 6.2-22.2-5-22.3-2.3-.1-5.8.6-7.6 1.6-3.1 1.6-3.2 1.6-3.2-.4 0-3.4 2.6-8.5 5.5-10.8 3.1-2.5 6.2-2.8 10-1 2.2 1 2.8.9 3.6-.3 1.3-2.1 1.1-2.5-1.6-3.7-4.4-2-10.7-1.5-14.6 1.2zM471 1537c2.6 2.6 2.6 8-.1 11.4-1.7 2.2-2.8 2.6-5.7 2.4-4-.3-6.8-3.4-7.8-8.5-.6-2.8-.3-3.4 2.7-5.2 4.3-2.6 8.3-2.7 10.9-.1zM491.7 1516.8c-7.3 4.5-10.2 20.8-5.4 30.2 2.9 5.7 6.4 8.3 11.5 8.2 9.9-.2 14.7-7 14.6-20.7 0-12.9-4.8-19.5-14.1-19.5-2.1 0-5.1.8-6.6 1.8zm12.1 4.5c2.7 2.9 4.2 7.7 4.2 13.7 0 9.7-3.8 16-9.7 16-3.6 0-6.8-2.5-8.3-6.6-1.5-3.7-1.2-15 .4-18.8 2.7-6.5 9.4-8.6 13.4-4.3zM1359.5 1518.4c-.6.8-5.4 6.9-10.8 13.5-8.6 10.5-9.7 12.3-8.7 14.1 1 1.8 2 2 10 2h9v4.5c0 4.1.2 4.5 2.5 4.5s2.5-.4 2.5-4.5c0-4.3.1-4.5 2.9-4.5 1.7 0 3.1-.6 3.5-1.6.9-2.3-.2-3.4-3.5-3.4h-2.9v-13c0-11.7-.2-13-1.8-13-.9 0-2.2.6-2.7 1.4zm-.8 24.3c-.3.2-3.3.3-6.7.1l-6.1-.3 6.3-8 6.3-8.1.3 7.9c.2 4.4.1 8.1-.1 8.4zM1382.3 1519c-5.2 3.1-7.7 9.1-7.7 18.5-.1 12.9 4.5 19.5 13.8 19.7 9 .1 13.7-5.8 14.4-18.4.5-9.3-1.3-15.4-5.9-19.3-3.8-3.1-10-3.4-14.6-.5zm11.7 4c3.1 3.1 4.2 6.8 4.2 14 0 10.4-3.3 16-9.5 16-7.5 0-11.8-11.7-8.7-23.1 2.2-7.9 9.4-11.5 14-6.9zM905 1527.7c-.1 1-.9 12.6-2 25.8-1.8 23.3-1.8 24.1 0 25.9 1.8 1.9 2 1.9 8.8-.3 19-6.1 36-.7 39.1 12.5 4 16.7-9.4 31.7-26.8 30.1-7.3-.6-12.6-3.3-17.9-9.1-2.4-2.6-4.6-4.5-5-4.2-.4.2-2.2 2.4-3.9 4.9l-3.2 4.4 3.7 3.5c9.1 8.6 16.7 11.2 30.6 10.6 10.9-.5 18.7-3.6 25.4-10.1 13.5-13 14.4-35.5 2-47.4-7.3-7.1-22-10.1-36.2-7.4-3.3.6-6 1-6.1.8-.1-.2 2.2-29 2.4-29.5.1-.1 9.7-.2 21.5-.2h21.3l.7-3.8c.3-2 .6-4.7.6-6v-2.2h-27.5c-25.5 0-27.5.1-27.5 1.7zM899.6 1667.7c-.3 4.2-.6 8.9-.6 10.4v2.8l6.3-.6c7.2-.6 10.3.5 11.7 4.3 1.2 3.1-.9 8.8-3.8 10.3-3.5 1.9-7.9 1.3-11.2-1.5-3-2.6-3.1-2.6-4.5-.8-1.3 1.7-1.2 2.2 1.5 4.6 2.6 2.4 3.9 2.8 8.8 2.8 7.1 0 11.7-2.6 13.8-7.6 4.1-9.9-3.9-19.2-14.6-17l-3 .5V1665h8.5c8.4 0 8.5 0 8.5-2.5v-2.5H900.3l-.7 7.7zM936.7 1661.8c-7.3 4.5-10.2 20.8-5.4 30.2 2.9 5.7 6.4 8.3 11.5 8.2 9.9-.2 14.7-7 14.6-20.7 0-12.9-4.8-19.5-14.1-19.5-2.1 0-5.1.8-6.6 1.8zm12.1 4.5c2.7 2.9 4.2 7.7 4.2 13.7 0 9.7-3.8 16-9.7 16-3.6 0-6.8-2.5-8.3-6.6-1.5-3.7-1.2-15 .4-18.8 2.7-6.5 9.4-8.6 13.4-4.3z"/></svg>